<mxfile host="65bd71144e">
    <diagram id="8DrMxxladgweljOqaM4f" name="PÃ¡gina-1">
        <mxGraphModel dx="1729" dy="411" grid="1" gridSize="10" guides="1" tooltips="1" connect="1" arrows="1" fold="1" page="1" pageScale="1" pageWidth="827" pageHeight="1169" math="0" shadow="0">
            <root>
                <mxCell id="0"/>
                <mxCell id="1" parent="0"/>
                <mxCell id="4" value="" style="edgeStyle=none;html=1;fontSize=14;fontColor=#000000;" parent="1" source="2" target="3" edge="1">
                    <mxGeometry relative="1" as="geometry"/>
                </mxCell>
                <mxCell id="2" value="&lt;font color=&quot;#000000&quot; style=&quot;font-size: 14px;&quot;&gt;&lt;b&gt;INICIO&lt;/b&gt;&lt;/font&gt;" style="ellipse;whiteSpace=wrap;html=1;fillColor=#00CC00;" parent="1" vertex="1">
                    <mxGeometry x="400" width="120" height="80" as="geometry"/>
                </mxCell>
                <mxCell id="8" value="" style="edgeStyle=none;html=1;fontSize=14;fontColor=#000000;entryX=0.5;entryY=0;entryDx=0;entryDy=0;" parent="1" source="3" target="13" edge="1">
                    <mxGeometry relative="1" as="geometry">
                        <mxPoint x="460" y="220" as="targetPoint"/>
                    </mxGeometry>
                </mxCell>
                <mxCell id="3" value="&lt;b&gt;PESO , ALTURA&lt;/b&gt;" style="shape=parallelogram;perimeter=parallelogramPerimeter;whiteSpace=wrap;html=1;fixedSize=1;fontSize=14;fontColor=#000000;fillColor=#FF3333;" parent="1" vertex="1">
                    <mxGeometry x="390" y="120" width="140" height="70" as="geometry"/>
                </mxCell>
                <mxCell id="15" value="" style="edgeStyle=none;html=1;fontSize=14;fontColor=#000000;" parent="1" source="13" target="14" edge="1">
                    <mxGeometry relative="1" as="geometry"/>
                </mxCell>
                <mxCell id="13" value="&lt;b&gt;(IMC = PESO[kg] / ALTURA&lt;sup&gt;2 &lt;/sup&gt;[ml])&lt;/b&gt;" style="rounded=0;whiteSpace=wrap;html=1;fontSize=14;fontColor=#000000;fillColor=#B266FF;" parent="1" vertex="1">
                    <mxGeometry x="340" y="230" width="240" height="60" as="geometry"/>
                </mxCell>
                <mxCell id="18" style="edgeStyle=none;html=1;fontSize=14;fontColor=#00CC00;entryX=0.5;entryY=0;entryDx=0;entryDy=0;" parent="1" source="14" target="17" edge="1">
                    <mxGeometry relative="1" as="geometry">
                        <Array as="points">
                            <mxPoint x="820" y="390"/>
                        </Array>
                    </mxGeometry>
                </mxCell>
                <mxCell id="21" style="edgeStyle=none;html=1;entryX=0.5;entryY=0;entryDx=0;entryDy=0;fontSize=14;fontColor=#000000;" parent="1" source="14" target="19" edge="1">
                    <mxGeometry relative="1" as="geometry">
                        <Array as="points">
                            <mxPoint x="320" y="390"/>
                        </Array>
                    </mxGeometry>
                </mxCell>
                <mxCell id="14" value="&lt;b&gt;IMC &amp;lt; 16&lt;/b&gt;" style="rhombus;whiteSpace=wrap;html=1;fontSize=14;fontColor=#000000;fillColor=#FFFF33;" parent="1" vertex="1">
                    <mxGeometry x="400" y="330" width="120" height="120" as="geometry"/>
                </mxCell>
                <mxCell id="16" value="&lt;b&gt;&lt;font color=&quot;#00cc00&quot;&gt;TRUE&lt;/font&gt;&lt;/b&gt;" style="text;html=1;align=center;verticalAlign=middle;resizable=0;points=[];autosize=1;strokeColor=none;fillColor=none;fontSize=14;fontColor=#000000;" parent="1" vertex="1">
                    <mxGeometry x="480" y="325" width="60" height="30" as="geometry"/>
                </mxCell>
                <mxCell id="67" style="edgeStyle=none;html=1;entryX=0.5;entryY=0;entryDx=0;entryDy=0;fontColor=#FF3333;" edge="1" parent="1" source="17" target="66">
                    <mxGeometry relative="1" as="geometry">
                        <Array as="points">
                            <mxPoint x="830" y="1240"/>
                            <mxPoint x="400" y="1240"/>
                        </Array>
                    </mxGeometry>
                </mxCell>
                <mxCell id="17" value="&lt;b&gt;&lt;font color=&quot;#000000&quot;&gt;RESULTADO&lt;/font&gt;&lt;/b&gt;" style="rounded=0;whiteSpace=wrap;html=1;fontSize=14;fontColor=#00CC00;fillColor=#0066CC;" parent="1" vertex="1">
                    <mxGeometry x="760" y="440" width="120" height="60" as="geometry"/>
                </mxCell>
                <mxCell id="24" style="edgeStyle=none;html=1;entryX=0.5;entryY=0;entryDx=0;entryDy=0;fontSize=14;fontColor=#000000;" parent="1" source="19" target="23" edge="1">
                    <mxGeometry relative="1" as="geometry">
                        <Array as="points">
                            <mxPoint x="520" y="480"/>
                        </Array>
                    </mxGeometry>
                </mxCell>
                <mxCell id="27" style="edgeStyle=none;html=1;entryX=0.5;entryY=0;entryDx=0;entryDy=0;fontSize=14;fontColor=#000000;" parent="1" source="19" target="26" edge="1">
                    <mxGeometry relative="1" as="geometry">
                        <Array as="points">
                            <mxPoint x="200" y="480"/>
                        </Array>
                    </mxGeometry>
                </mxCell>
                <mxCell id="19" value="&lt;b&gt;IMC &amp;lt;=17&lt;/b&gt;" style="rhombus;whiteSpace=wrap;html=1;fontSize=14;fontColor=#000000;fillColor=#FFFF33;" parent="1" vertex="1">
                    <mxGeometry x="270" y="440" width="100" height="80" as="geometry"/>
                </mxCell>
                <mxCell id="22" value="&lt;b&gt;&lt;font color=&quot;#00cc00&quot;&gt;TRUE&lt;/font&gt;&lt;/b&gt;" style="text;html=1;align=center;verticalAlign=middle;resizable=0;points=[];autosize=1;strokeColor=none;fillColor=none;fontSize=14;fontColor=#000000;" parent="1" vertex="1">
                    <mxGeometry x="340" y="430" width="60" height="30" as="geometry"/>
                </mxCell>
                <mxCell id="74" style="edgeStyle=none;html=1;fontColor=#FF3333;entryX=0.5;entryY=0;entryDx=0;entryDy=0;" edge="1" parent="1" source="23" target="66">
                    <mxGeometry relative="1" as="geometry">
                        <mxPoint x="300" y="1172" as="targetPoint"/>
                        <Array as="points">
                            <mxPoint x="520" y="1240"/>
                            <mxPoint x="400" y="1240"/>
                        </Array>
                    </mxGeometry>
                </mxCell>
                <mxCell id="23" value="&lt;b&gt;RESULTADO&lt;/b&gt;" style="rounded=0;whiteSpace=wrap;html=1;fontSize=14;fontColor=#000000;fillColor=#0066CC;" parent="1" vertex="1">
                    <mxGeometry x="460" y="520" width="120" height="60" as="geometry"/>
                </mxCell>
                <mxCell id="32" style="edgeStyle=none;html=1;entryX=0.5;entryY=0;entryDx=0;entryDy=0;" edge="1" parent="1" source="26" target="31">
                    <mxGeometry relative="1" as="geometry">
                        <Array as="points">
                            <mxPoint x="354" y="570"/>
                        </Array>
                    </mxGeometry>
                </mxCell>
                <mxCell id="26" value="&lt;b&gt;IMC &amp;lt;=18&lt;/b&gt;" style="rhombus;whiteSpace=wrap;html=1;fontSize=14;fontColor=#000000;fillColor=#FFFF33;" parent="1" vertex="1">
                    <mxGeometry x="150" y="530" width="100" height="80" as="geometry"/>
                </mxCell>
                <mxCell id="28" value="&lt;font color=&quot;#ff3333&quot;&gt;&lt;b&gt;FALSE&lt;/b&gt;&lt;/font&gt;" style="text;html=1;align=center;verticalAlign=middle;resizable=0;points=[];autosize=1;strokeColor=none;fillColor=none;fontSize=14;fontColor=#000000;" parent="1" vertex="1">
                    <mxGeometry x="365" y="335" width="70" height="30" as="geometry"/>
                </mxCell>
                <mxCell id="29" value="&lt;b&gt;&lt;font color=&quot;#00cc00&quot;&gt;TRUE&lt;/font&gt;&lt;/b&gt;" style="text;html=1;align=center;verticalAlign=middle;resizable=0;points=[];autosize=1;strokeColor=none;fillColor=none;fontSize=14;fontColor=#000000;" vertex="1" parent="1">
                    <mxGeometry x="230" y="530" width="60" height="30" as="geometry"/>
                </mxCell>
                <mxCell id="73" style="edgeStyle=none;html=1;entryX=0.5;entryY=0;entryDx=0;entryDy=0;fontColor=#FF3333;" edge="1" parent="1" source="31" target="66">
                    <mxGeometry relative="1" as="geometry">
                        <Array as="points">
                            <mxPoint x="354" y="1240"/>
                            <mxPoint x="400" y="1240"/>
                        </Array>
                    </mxGeometry>
                </mxCell>
                <mxCell id="31" value="&lt;b&gt;RESULTADO&lt;/b&gt;" style="rounded=0;whiteSpace=wrap;html=1;fontSize=14;fontColor=#000000;fillColor=#0066CC;" vertex="1" parent="1">
                    <mxGeometry x="294" y="610" width="120" height="60" as="geometry"/>
                </mxCell>
                <mxCell id="33" style="edgeStyle=none;html=1;entryX=0.5;entryY=0;entryDx=0;entryDy=0;fontSize=14;fontColor=#000000;" edge="1" parent="1">
                    <mxGeometry relative="1" as="geometry">
                        <Array as="points">
                            <mxPoint x="80" y="570"/>
                        </Array>
                        <mxPoint x="150" y="570" as="sourcePoint"/>
                        <mxPoint x="80" y="620" as="targetPoint"/>
                    </mxGeometry>
                </mxCell>
                <mxCell id="35" style="edgeStyle=none;html=1;entryX=0.5;entryY=0;entryDx=0;entryDy=0;fontSize=14;fontColor=#000000;" edge="1" parent="1">
                    <mxGeometry relative="1" as="geometry">
                        <Array as="points">
                            <mxPoint x="-40" y="660"/>
                        </Array>
                        <mxPoint x="30" y="660" as="sourcePoint"/>
                        <mxPoint x="-40" y="710" as="targetPoint"/>
                    </mxGeometry>
                </mxCell>
                <mxCell id="36" value="&lt;b&gt;IMC &amp;lt;=25&lt;/b&gt;" style="rhombus;whiteSpace=wrap;html=1;fontSize=14;fontColor=#000000;fillColor=#FFFF33;" vertex="1" parent="1">
                    <mxGeometry x="30" y="620" width="100" height="80" as="geometry"/>
                </mxCell>
                <mxCell id="37" value="&lt;b&gt;IMC &amp;lt;=30&lt;/b&gt;" style="rhombus;whiteSpace=wrap;html=1;fontSize=14;fontColor=#000000;fillColor=#FFFF33;" vertex="1" parent="1">
                    <mxGeometry x="-90" y="710" width="100" height="80" as="geometry"/>
                </mxCell>
                <mxCell id="38" value="&lt;b&gt;IMC &amp;lt;=35&lt;/b&gt;" style="rhombus;whiteSpace=wrap;html=1;fontSize=14;fontColor=#000000;fillColor=#FFFF33;" vertex="1" parent="1">
                    <mxGeometry x="-210" y="800" width="100" height="80" as="geometry"/>
                </mxCell>
                <mxCell id="39" style="edgeStyle=none;html=1;entryX=0.5;entryY=0;entryDx=0;entryDy=0;fontSize=14;fontColor=#000000;" edge="1" parent="1">
                    <mxGeometry relative="1" as="geometry">
                        <Array as="points">
                            <mxPoint x="-280" y="840"/>
                        </Array>
                        <mxPoint x="-210" y="840" as="sourcePoint"/>
                        <mxPoint x="-280" y="890" as="targetPoint"/>
                    </mxGeometry>
                </mxCell>
                <mxCell id="40" style="edgeStyle=none;html=1;entryX=0.5;entryY=0;entryDx=0;entryDy=0;fontSize=14;fontColor=#000000;" edge="1" parent="1">
                    <mxGeometry relative="1" as="geometry">
                        <Array as="points">
                            <mxPoint x="-400" y="930"/>
                        </Array>
                        <mxPoint x="-330" y="930" as="sourcePoint"/>
                        <mxPoint x="-400" y="980" as="targetPoint"/>
                    </mxGeometry>
                </mxCell>
                <mxCell id="41" style="edgeStyle=none;html=1;entryX=0.5;entryY=0;entryDx=0;entryDy=0;fontSize=14;fontColor=#000000;" edge="1" parent="1">
                    <mxGeometry relative="1" as="geometry">
                        <Array as="points">
                            <mxPoint x="-160" y="750"/>
                        </Array>
                        <mxPoint x="-90" y="750" as="sourcePoint"/>
                        <mxPoint x="-160" y="800" as="targetPoint"/>
                    </mxGeometry>
                </mxCell>
                <mxCell id="42" value="&lt;b&gt;IMC &amp;lt;=40&lt;/b&gt;" style="rhombus;whiteSpace=wrap;html=1;fontSize=14;fontColor=#000000;fillColor=#FFFF33;" vertex="1" parent="1">
                    <mxGeometry x="-330" y="890" width="100" height="80" as="geometry"/>
                </mxCell>
                <mxCell id="43" value="&lt;b&gt;IMC &amp;gt;=40&lt;/b&gt;" style="rhombus;whiteSpace=wrap;html=1;fontSize=14;fontColor=#000000;fillColor=#FFFF33;" vertex="1" parent="1">
                    <mxGeometry x="-450" y="980" width="100" height="80" as="geometry"/>
                </mxCell>
                <mxCell id="44" value="&lt;font color=&quot;#ff3333&quot;&gt;&lt;b&gt;FALSE&lt;/b&gt;&lt;/font&gt;" style="text;html=1;align=center;verticalAlign=middle;resizable=0;points=[];autosize=1;strokeColor=none;fillColor=none;fontSize=14;fontColor=#000000;" vertex="1" parent="1">
                    <mxGeometry x="225" y="430" width="70" height="30" as="geometry"/>
                </mxCell>
                <mxCell id="45" value="&lt;font color=&quot;#ff3333&quot;&gt;&lt;b&gt;FALSE&lt;/b&gt;&lt;/font&gt;" style="text;html=1;align=center;verticalAlign=middle;resizable=0;points=[];autosize=1;strokeColor=none;fillColor=none;fontSize=14;fontColor=#000000;" vertex="1" parent="1">
                    <mxGeometry x="90" y="535" width="70" height="30" as="geometry"/>
                </mxCell>
                <mxCell id="46" value="&lt;font color=&quot;#ff3333&quot;&gt;&lt;b&gt;FALSE&lt;/b&gt;&lt;/font&gt;" style="text;html=1;align=center;verticalAlign=middle;resizable=0;points=[];autosize=1;strokeColor=none;fillColor=none;fontSize=14;fontColor=#000000;" vertex="1" parent="1">
                    <mxGeometry x="-30" y="620" width="70" height="30" as="geometry"/>
                </mxCell>
                <mxCell id="47" value="&lt;font color=&quot;#ff3333&quot;&gt;&lt;b&gt;FALSE&lt;/b&gt;&lt;/font&gt;" style="text;html=1;align=center;verticalAlign=middle;resizable=0;points=[];autosize=1;strokeColor=none;fillColor=none;fontSize=14;fontColor=#000000;" vertex="1" parent="1">
                    <mxGeometry x="-140" y="710" width="70" height="30" as="geometry"/>
                </mxCell>
                <mxCell id="48" value="&lt;font color=&quot;#ff3333&quot;&gt;&lt;b&gt;FALSE&lt;/b&gt;&lt;/font&gt;" style="text;html=1;align=center;verticalAlign=middle;resizable=0;points=[];autosize=1;strokeColor=none;fillColor=none;fontSize=14;fontColor=#000000;" vertex="1" parent="1">
                    <mxGeometry x="-250" y="790" width="70" height="30" as="geometry"/>
                </mxCell>
                <mxCell id="49" value="&lt;font color=&quot;#ff3333&quot;&gt;&lt;b&gt;FALSE&lt;/b&gt;&lt;/font&gt;" style="text;html=1;align=center;verticalAlign=middle;resizable=0;points=[];autosize=1;strokeColor=none;fillColor=none;fontSize=14;fontColor=#000000;" vertex="1" parent="1">
                    <mxGeometry x="-370" y="880" width="70" height="30" as="geometry"/>
                </mxCell>
                <mxCell id="50" value="&lt;font color=&quot;#ff3333&quot;&gt;&lt;b&gt;FALSE&lt;/b&gt;&lt;/font&gt;" style="text;html=1;align=center;verticalAlign=middle;resizable=0;points=[];autosize=1;strokeColor=none;fillColor=none;fontSize=14;fontColor=#000000;" vertex="1" parent="1">
                    <mxGeometry x="-490" y="970" width="70" height="30" as="geometry"/>
                </mxCell>
                <mxCell id="51" value="&lt;b&gt;&lt;font color=&quot;#00cc00&quot;&gt;TRUE&lt;/font&gt;&lt;/b&gt;" style="text;html=1;align=center;verticalAlign=middle;resizable=0;points=[];autosize=1;strokeColor=none;fillColor=none;fontSize=14;fontColor=#000000;" vertex="1" parent="1">
                    <mxGeometry x="100" y="620" width="60" height="30" as="geometry"/>
                </mxCell>
                <mxCell id="52" value="&lt;b&gt;&lt;font color=&quot;#00cc00&quot;&gt;TRUE&lt;/font&gt;&lt;/b&gt;" style="text;html=1;align=center;verticalAlign=middle;resizable=0;points=[];autosize=1;strokeColor=none;fillColor=none;fontSize=14;fontColor=#000000;" vertex="1" parent="1">
                    <mxGeometry x="-10" y="710" width="60" height="30" as="geometry"/>
                </mxCell>
                <mxCell id="53" value="&lt;b&gt;&lt;font color=&quot;#00cc00&quot;&gt;TRUE&lt;/font&gt;&lt;/b&gt;" style="text;html=1;align=center;verticalAlign=middle;resizable=0;points=[];autosize=1;strokeColor=none;fillColor=none;fontSize=14;fontColor=#000000;" vertex="1" parent="1">
                    <mxGeometry x="-140" y="790" width="60" height="30" as="geometry"/>
                </mxCell>
                <mxCell id="54" value="&lt;b&gt;&lt;font color=&quot;#00cc00&quot;&gt;TRUE&lt;/font&gt;&lt;/b&gt;" style="text;html=1;align=center;verticalAlign=middle;resizable=0;points=[];autosize=1;strokeColor=none;fillColor=none;fontSize=14;fontColor=#000000;" vertex="1" parent="1">
                    <mxGeometry x="-260" y="880" width="60" height="30" as="geometry"/>
                </mxCell>
                <mxCell id="55" value="&lt;b&gt;&lt;font color=&quot;#00cc00&quot;&gt;TRUE&lt;/font&gt;&lt;/b&gt;" style="text;html=1;align=center;verticalAlign=middle;resizable=0;points=[];autosize=1;strokeColor=none;fillColor=none;fontSize=14;fontColor=#000000;" vertex="1" parent="1">
                    <mxGeometry x="-380" y="970" width="60" height="30" as="geometry"/>
                </mxCell>
                <mxCell id="56" style="edgeStyle=none;html=1;entryX=0.5;entryY=0;entryDx=0;entryDy=0;" edge="1" parent="1">
                    <mxGeometry relative="1" as="geometry">
                        <mxPoint x="130" y="660" as="sourcePoint"/>
                        <mxPoint x="234" y="700" as="targetPoint"/>
                        <Array as="points">
                            <mxPoint x="234" y="660"/>
                        </Array>
                    </mxGeometry>
                </mxCell>
                <mxCell id="57" style="edgeStyle=none;html=1;entryX=0.5;entryY=0;entryDx=0;entryDy=0;" edge="1" parent="1">
                    <mxGeometry relative="1" as="geometry">
                        <mxPoint x="10" y="750" as="sourcePoint"/>
                        <mxPoint x="114" y="790" as="targetPoint"/>
                        <Array as="points">
                            <mxPoint x="114" y="750"/>
                        </Array>
                    </mxGeometry>
                </mxCell>
                <mxCell id="58" style="edgeStyle=none;html=1;entryX=0.5;entryY=0;entryDx=0;entryDy=0;" edge="1" parent="1">
                    <mxGeometry relative="1" as="geometry">
                        <mxPoint x="-110" y="840" as="sourcePoint"/>
                        <mxPoint x="-6" y="880" as="targetPoint"/>
                        <Array as="points">
                            <mxPoint x="-6" y="840"/>
                        </Array>
                    </mxGeometry>
                </mxCell>
                <mxCell id="59" style="edgeStyle=none;html=1;entryX=0.5;entryY=0;entryDx=0;entryDy=0;" edge="1" parent="1">
                    <mxGeometry relative="1" as="geometry">
                        <mxPoint x="-230" y="930" as="sourcePoint"/>
                        <mxPoint x="-126" y="970" as="targetPoint"/>
                        <Array as="points">
                            <mxPoint x="-126" y="930"/>
                        </Array>
                    </mxGeometry>
                </mxCell>
                <mxCell id="60" style="edgeStyle=none;html=1;entryX=0.5;entryY=0;entryDx=0;entryDy=0;" edge="1" parent="1">
                    <mxGeometry relative="1" as="geometry">
                        <mxPoint x="-354" y="1020" as="sourcePoint"/>
                        <mxPoint x="-250" y="1060" as="targetPoint"/>
                        <Array as="points">
                            <mxPoint x="-250" y="1020"/>
                        </Array>
                    </mxGeometry>
                </mxCell>
                <mxCell id="72" style="edgeStyle=none;html=1;fontColor=#FF3333;entryX=0.5;entryY=0;entryDx=0;entryDy=0;" edge="1" parent="1" source="61" target="66">
                    <mxGeometry relative="1" as="geometry">
                        <mxPoint x="300" y="1181" as="targetPoint"/>
                        <Array as="points">
                            <mxPoint x="235" y="1240"/>
                            <mxPoint x="400" y="1240"/>
                        </Array>
                    </mxGeometry>
                </mxCell>
                <mxCell id="61" value="&lt;b&gt;RESULTADO&lt;/b&gt;" style="rounded=0;whiteSpace=wrap;html=1;fontSize=14;fontColor=#000000;fillColor=#0066CC;" vertex="1" parent="1">
                    <mxGeometry x="175" y="700" width="120" height="60" as="geometry"/>
                </mxCell>
                <mxCell id="71" style="edgeStyle=none;html=1;entryX=0.5;entryY=0;entryDx=0;entryDy=0;fontColor=#FF3333;" edge="1" parent="1" source="62" target="66">
                    <mxGeometry relative="1" as="geometry">
                        <Array as="points">
                            <mxPoint x="115" y="1240"/>
                            <mxPoint x="400" y="1240"/>
                        </Array>
                    </mxGeometry>
                </mxCell>
                <mxCell id="62" value="&lt;b&gt;RESULTADO&lt;/b&gt;" style="rounded=0;whiteSpace=wrap;html=1;fontSize=14;fontColor=#000000;fillColor=#0066CC;" vertex="1" parent="1">
                    <mxGeometry x="55" y="790" width="120" height="60" as="geometry"/>
                </mxCell>
                <mxCell id="70" style="edgeStyle=none;html=1;entryX=0.5;entryY=0;entryDx=0;entryDy=0;fontColor=#FF3333;" edge="1" parent="1" source="63" target="66">
                    <mxGeometry relative="1" as="geometry">
                        <Array as="points">
                            <mxPoint y="1240"/>
                            <mxPoint x="400" y="1240"/>
                        </Array>
                    </mxGeometry>
                </mxCell>
                <mxCell id="63" value="&lt;b&gt;RESULTADO&lt;/b&gt;" style="rounded=0;whiteSpace=wrap;html=1;fontSize=14;fontColor=#000000;fillColor=#0066CC;" vertex="1" parent="1">
                    <mxGeometry x="-65" y="880" width="120" height="60" as="geometry"/>
                </mxCell>
                <mxCell id="69" style="edgeStyle=none;html=1;entryX=0.5;entryY=0;entryDx=0;entryDy=0;fontColor=#FF3333;" edge="1" parent="1" source="64" target="66">
                    <mxGeometry relative="1" as="geometry">
                        <Array as="points">
                            <mxPoint x="-125" y="1240"/>
                            <mxPoint x="400" y="1240"/>
                        </Array>
                    </mxGeometry>
                </mxCell>
                <mxCell id="64" value="&lt;b&gt;RESULTADO&lt;/b&gt;" style="rounded=0;whiteSpace=wrap;html=1;fontSize=14;fontColor=#000000;fillColor=#0066CC;" vertex="1" parent="1">
                    <mxGeometry x="-185" y="970" width="120" height="60" as="geometry"/>
                </mxCell>
                <mxCell id="68" style="edgeStyle=none;html=1;entryX=0.5;entryY=0;entryDx=0;entryDy=0;fontColor=#FF3333;" edge="1" parent="1" source="65" target="66">
                    <mxGeometry relative="1" as="geometry">
                        <Array as="points">
                            <mxPoint x="-250" y="1240"/>
                            <mxPoint x="400" y="1240"/>
                        </Array>
                    </mxGeometry>
                </mxCell>
                <mxCell id="65" value="&lt;b&gt;RESULTADO&lt;/b&gt;" style="rounded=0;whiteSpace=wrap;html=1;fontSize=14;fontColor=#000000;fillColor=#0066CC;" vertex="1" parent="1">
                    <mxGeometry x="-310" y="1060" width="120" height="60" as="geometry"/>
                </mxCell>
                <mxCell id="76" value="" style="edgeStyle=none;html=1;fontColor=#FF3333;" edge="1" parent="1" source="66" target="75">
                    <mxGeometry relative="1" as="geometry"/>
                </mxCell>
                <mxCell id="66" value="&lt;font color=&quot;#000000&quot; style=&quot;font-size: 14px;&quot;&gt;&lt;b&gt;PRINT&lt;br&gt;(RESULTADO)&lt;/b&gt;&lt;/font&gt;" style="shape=document;whiteSpace=wrap;html=1;boundedLbl=1;fontColor=#FF3333;fillColor=#FF8000;" vertex="1" parent="1">
                    <mxGeometry x="340" y="1300" width="120" height="80" as="geometry"/>
                </mxCell>
                <mxCell id="75" value="&lt;font color=&quot;#000000&quot; style=&quot;font-size: 14px;&quot;&gt;&lt;b&gt;FIN&lt;/b&gt;&lt;/font&gt;" style="ellipse;whiteSpace=wrap;html=1;fontColor=#FF3333;fillColor=#FF3333;" vertex="1" parent="1">
                    <mxGeometry x="340" y="1410" width="120" height="80" as="geometry"/>
                </mxCell>
            </root>
        </mxGraphModel>
    </diagram>
</mxfile>